<?xml version="1.0" encoding="UTF-8"?>
<!DOCTYPE svg  PUBLIC '-//W3C//DTD SVG 1.1//EN'  'http://www.w3.org/Graphics/SVG/1.1/DTD/svg11.dtd'>
<svg clip-rule="evenodd" fill-rule="evenodd" image-rendering="optimizeQuality" shape-rendering="geometricPrecision" text-rendering="geometricPrecision" version="1.1" viewBox="0 0 3445.92 3445.92" xml:space="preserve" xmlns="http://www.w3.org/2000/svg">
 <defs>
  <style type="text/css">
   <![CDATA[
    .str0 {stroke:#373435;stroke-width:16.93;stroke-miterlimit:22.9256}
    .fil1 {fill:none}
    .fil2 {fill:#FEFEFE}
    .fil0 {fill:#FEFEFE}
    .fil4 {fill:#E6E7E8}
    .fil6 {fill:#E6E7E8}
    .fil5 {fill:#D2D3D5}
    .fil7 {fill:#373435}
    .fil3 {fill:#373435;fill-rule:nonzero}
   ]]>
  </style>
   <clipPath id="b">
    <path d="m2284 1911.4c-9.18-85.82-48.11-166.32-87.05-246.83 76.63 61.54 143.43 132.48 179.28 233 52.55 147.35 38.58 358.28 24.62 569.21 41.11-110.19 82.23-220.39 116.61-324.59 40.6-123.06 71.82-237.78 82.56-334.28 19.85-178.23-30.13-294.36-137.07-402.76-106.93-108.41-270.83-209.1-452.22-216.91s-380.29 77.26-487.09 158.75c-106.79 81.49-121.48 159.39-234.44 226.13-112.96 66.73-324.19 122.28-535.41 177.84 53.94 42.93 107.89 85.85 148.09 105.85 40.2 19.99 66.65 17.05 182.77 3.82 116.13-13.23 321.91-36.74 453.47-33.8s188.88 32.33 230.77 108.03c41.9 75.7 68.36 197.71 94.82 319.71 7.49-32.98 14.99-65.95 20.63-99.9 5.42-32.64 9.13-66.17 9.49-101.48 0.3-29.53-1.74-60.3-5.17-91.79 25.58 18.31 51.17 36.61 71.67 94.27 20.51 57.66 35.95 154.68 51.38 251.69 26.46-104.36 52.91-208.73 54.75-300.6 1.25-62.18-8.79-118.63-22.47-173.24 59.79 77.11 119.58 154.21 154.25 211.87 34.67 57.67 44.23 95.88 53.78 134.1 20.58-91.13 41.16-182.27 31.98-268.09z"/>
   </clipPath>
   <clipPath id="a">
    <path d="m2284 1911.4c9.18 85.82-11.4 176.96-31.98 268.09-9.55-38.22-19.11-76.43-53.78-134.1-34.67-57.66-94.46-134.76-154.25-211.87 13.68 54.61 23.72 111.06 22.47 173.24-1.84 91.87-28.29 196.24-54.75 300.6-15.43-97.01-30.87-194.03-51.38-251.69-20.5-57.66-46.09-75.96-71.67-94.27 3.43 31.49 5.47 62.26 5.17 91.79-0.36 35.31-4.07 68.84-9.49 101.48 16.24 56.71 32.48 113.42 13.65 190.32-18.84 76.91-72.76 174.01-126.68 271.11 63.8-37.8 127.6-75.6 178.74-122.88s89.61-104.04 128.09-160.8l-7.25 116.69-13.31 222.59c30.64-65.23 61.27-130.46 85.96-194.11 24.68-63.65 43.41-125.72 62.14-187.79 11.04 88.18 22.08 176.35 98.87 238.09 76.81 61.73 219.37 97.02 361.94 132.31l-149.03-518.01c-34.38 104.2-75.5 214.4-116.61 324.59 13.96-210.93 27.93-421.86-24.62-569.21-35.85-100.52-102.65-171.46-179.28-233 38.94 80.51 77.87 161.01 87.05 246.83z"/>
   </clipPath>
 </defs>
  <path class="fil0 str0" d="m2657.8 748.89c69.41 0 125.68 56.27 125.68 125.68s-56.27 125.68-125.68 125.68-125.68-56.27-125.68-125.68 56.27-125.68 125.68-125.68z"/>
  <path class="fil0 str0" d="m3039.2 1405.9c99.86 0 180.81 80.95 180.81 180.81 0 99.85-80.95 180.8-180.81 180.8-99.85 0-180.8-80.95-180.8-180.8 0-99.86 80.95-180.81 180.8-180.81z"/>
  <path class="fil1 str0" d="m300.95 2646.5c-83.7-144.96 467.34-619.8 1230.8-1060.6 763.42-440.78 1450.2-680.6 1533.8-535.64"/>
  <path class="fil2 str0" d="m1723 658.15c588.08 0 1064.8 476.73 1064.8 1064.8s-476.73 1064.8-1064.8 1064.8-1064.8-476.73-1064.8-1064.8 476.73-1064.8 1064.8-1064.8z"/>
  <path class="fil3" d="m658.18 1258.3c-14.74 17.98-25.82 31.98-33.28 41.92-7.43 10.01-12.08 17.01-13.89 21.04-1.77 3.95-2.38 7.03-1.87 9.22 0.52 2.19 2.25 3.95 5.21 5.28 5.7 2.56 12.13 0.91 19.32-4.99 7.17-5.9 13.49-14.92 18.95-27.06 3.76-8.38 6.11-16.34 7-23.83s0.4-14.67-1.44-21.58zm16.89-23.71c5.23 12.34 7.65 25.08 7.22 38.3-0.41 13.22-3.59 26.5-9.59 39.84-8.76 19.52-19.44 33.4-32 41.62-12.52 8.24-24.84 9.61-36.9 4.2-9.05-4.07-14.59-9.86-16.66-17.43-2.1-7.6-0.63-16.95 4.34-28.01 4.1-9.14 16.87-26.77 38.33-52.86 7.6-9.22 13.45-16.39 17.68-21.55-2.55-4.55-5.86-8.78-9.87-12.58-4.01-3.82-8.18-6.72-12.42-8.63-6.78-3.05-13.35-3.94-19.61-2.62-6.25 1.32-15.89 6.68-28.86 16.07-15.01 10.99-27.28 17.55-36.71 19.59-9.43 2.06-19.27 0.79-29.49-3.8-17.85-8.02-29.4-21.46-34.66-40.28-5.24-18.85-3.04-39 6.59-60.45 6.17-13.73 14.15-23.72 23.92-29.84 9.77-6.14 19.12-7.19 27.99-3.2 4.9 2.2 8.1 5.28 9.7 9.3 1.53 4.04 1.28 8.41-0.86 13.17l-0.79 1.76c-8.67-2.75-16.25-2.3-22.75 1.38-6.49 3.68-12.04 10.63-16.63 20.85-5.59 12.44-7.1 23.82-4.52 34.27 2.58 10.44 8.65 17.81 18.22 22.1 10.98 4.94 25.07 0.91 42.32-12.13 2.27-1.71 3.94-2.92 5.01-3.68 13.05-9.66 25.21-15.49 36.41-17.57 11.2-2.09 22.35-0.64 33.47 4.36 6.65 2.98 12.42 6.77 17.37 11.36 5 4.62 9.25 10.19 12.76 16.72 1.74-2.15 3.49-4.46 5.29-6.95 1.73-2.48 3.59-5.25 5.58-8.29l14.79 12.54c-2.8 5.08-5.36 9.4-7.71 12.92-2.37 3.53-4.68 6.73-6.96 9.52zm29.45-73.69c9.08 11.95 22.5 26.99 40.26 45.11 1.98 1.96 3.51 3.51 4.53 4.61 3.52 3.56 5.07 7.24 4.62 11.05-0.46 3.84-2.99 9.31-7.6 16.46-1.3 2.02-2.73 3.46-4.32 4.28-1.55 0.84-2.89 0.92-4 0.21-2.93-1.89-9.5-9.48-19.76-22.82s-19.47-24.65-27.56-33.9c-0.04 3.78-0.61 7.55-1.7 11.32-1.14 3.76-2.87 7.73-5.2 11.88l-12.82-14.49c8.67-15.79-3.46-40.36-36.44-73.67l-2.41-2.34c-4.62-4.72-10.54-10.55-17.88-17.47-17.43-16.56-22.65-30.23-15.74-40.94 2.35-3.64 4.46-5.97 6.36-7.09 1.95-1.1 3.79-1.09 5.57 0.06 1.93 1.24 9.01 9.45 21.28 24.7 10.05 12.36 18.42 22.64 25.19 30.81-10.57-20.76-16.81-37.04-18.78-48.72-1.98-11.69-0.29-21.69 5.04-29.95 5.18-8.02 12.24-12.81 21.17-14.39 8.94-1.56 17.83 0.54 26.73 6.28 10.19 6.58 18.59 16.03 25.21 28.42 6.65 12.34 11.17 27.02 13.66 44.07 3.62-2.58 7.15-5.79 10.56-9.69 3.43-3.84 6.81-8.38 10.15-13.55l12.72 14.64-1.94 3.01c-4.08 6.32-8.52 11.73-13.33 16.31-4.8 4.57-10.03 8.25-15.68 11.04-0.56 5.29-1.73 10.47-3.36 15.52-1.68 5.02-3.85 9.61-6.48 13.68-2.09 3.24-4.62 6.14-7.66 8.66-2.99 2.55-6.47 4.84-10.39 6.9zm-13.46-18.77c0.57-4.1 1.48-7.84 2.62-11.18 1.19-3.32 2.65-6.35 4.46-9.16 1.58-2.45 3.54-4.88 5.89-7.23 2.35-2.34 5.16-4.79 8.52-7.21-2.04-12.28-5.81-23.44-11.4-33.43-5.59-10-12.08-17.37-19.51-22.17-4.86-3.14-9.35-4.58-13.51-4.29-4.16 0.28-7.43 2.21-9.75 5.8-4.58 7.11-3.91 18.74 1.99 34.93 5.91 16.18 16.11 34.19 30.69 53.94zm71.39-226.49c-3.06 0.79-5.67 1.85-7.92 3.2-2.21 1.39-4.08 3.03-5.61 4.99-3.35 4.31-5.31 10.65-5.94 19.11-0.63 8.39 0.28 17.63 2.71 27.68 2.25 9.2 5.59 17.77 10.05 25.6 4.46 7.82 9.14 13.67 14.08 17.52 3.52 2.74 6.64 4.17 9.31 4.27 2.65 0.1 4.99-1.12 6.95-3.64 5.55-7.13 6.31-19.06 2.35-35.79-3.95-16.74-12.66-37.71-25.98-62.94zm32.58 43.22c7.77 18.51 11.83 34.02 12.29 46.6 0.46 12.57-2.71 23.23-9.5 31.94-3.2 4.12-6.6 7.27-10.15 9.45s-7.14 3.26-10.76 3.24c-0.87 5.17-2.59 10.44-5.12 15.92-2.58 5.45-6.2 11.4-10.83 17.81l-11.29-15.83c2.87-4.14 5.17-8.08 6.81-11.87 1.67-3.77 2.79-7.49 3.31-11.14-1.73-0.92-3.5-1.94-5.24-3.07-1.72-1.09-3.56-2.4-5.45-3.87-6.01-4.69-11.57-11.11-16.71-19.28-5.07-8.19-9.25-17.29-12.48-27.38-4.76-15.39-6.46-29.6-5.1-42.66 1.43-13.08 5.76-24.32 13.1-33.74 3.67-4.71 7.53-8.21 11.56-10.55s8.74-3.87 14.15-4.54l-3.72-5.34c-2.28-3.27-3.42-5.71-3.47-7.24-0.1-1.56 0.56-3.26 1.98-5.08 3.9-5.01 8.17-8.72 12.76-11.1 4.67-2.39 8.11-2.68 10.45-0.86 0.74 0.58 2.91 4.76 6.57 12.62 3.69 7.89 7.35 15.14 10.99 21.79 7.21 13.32 13.79 24.23 19.68 32.75 5.91 8.49 10.93 14.36 15.13 17.63 2.93 2.28 5.62 2.95 8.16 1.99 2.53-0.94 6.59-4.39 12.21-10.39l11.29 15.6-1.53 1.96c-8.84 11.35-16.28 18.44-22.3 21.2-5.99 2.79-11.87 1.91-17.59-2.54-2.51-1.96-5.28-4.84-8.33-8.58-2.97-3.75-6.61-8.9-10.87-15.44zm58.76 1.82l-8.87-17.3c3.86-4.08 7.07-8.26 9.63-12.66 2.56-4.35 4.53-8.96 5.86-13.81-4.27-1.26-8.38-3.19-12.35-5.84-3.99-2.61-8.11-6.16-12.44-10.68-13.85-14.48-20.85-32.06-20.92-52.77-0.08-20.68 6.51-37.41 19.8-50.12 6.76-6.47 13.66-10.08 20.69-10.76 7.04-0.67 12.98 1.52 17.89 6.65 3.29 3.43 5.03 7.3 5.2 11.5 0.14 4.22-1.2 7.72-4.05 10.45-1.06 1.01-1.93 1.59-2.67 1.7-0.73 0.13-1.66-0.43-2.8-1.62-2.92-3.06-5.74-4.65-8.54-4.78-2.79-0.12-5.72 1.3-8.77 4.23-6.7 6.41-9.3 15.8-7.71 28.15 1.6 12.34 6.91 23.27 16.01 32.79 9.07 9.48 18.7 13.61 28.91 12.37s21.86-7.96 35.01-20.15l9.1 17.07c-1.05 1.01-2.05 2.21-3.01 3.66-0.24 0.23-0.4 0.38-0.47 0.45-9.04 8.65-17.88 15.35-26.6 20.11-8.68 4.73-16.93 7.41-24.76 8.01-1.33 7.65-3.99 15.07-8.04 22.27-4.02 7.23-9.36 14.23-16.1 21.08zm102.85-154.68c3.64-10.83 4.75-22.42 3.28-34.79-1.41-12.35-4.58-21.65-9.47-27.86-2.44-3.1-5.04-4.89-7.84-5.32-2.79-0.43-5.65 0.5-8.53 2.77-5.99 4.71-8.55 12.4-7.62 23.1 0.91 10.66 5.04 20.64 12.37 29.95 2.79 3.55 5.61 6.3 8.4 8.24 2.81 1.91 5.95 3.22 9.41 3.91zm6.84 31.66c-4.37 8.82-9.39 16.9-14.99 24.24-5.63 7.36-11.87 13.95-18.81 19.9l-7.16-18.08c4.66-4.26 8.76-8.57 12.16-12.92 3.43-4.32 6.45-8.91 9.04-13.76-5.59-1.47-10.81-4-15.73-7.61-4.94-3.6-9.88-8.51-14.76-14.71-11.35-14.43-16.31-30.86-14.85-49.31 1.47-18.46 8.89-32.97 22.31-43.53 7.5-5.9 15.23-8.33 23.14-7.25s14.95 5.53 21.09 13.34c6.69 8.5 10.96 20.39 12.8 35.59 1.84 15.18 0.67 30.83-3.56 46.9 5.25 0.43 10.1-0.16 14.65-1.77 4.52-1.63 9.39-4.51 14.6-8.6l1.51-1.2 7.27 17.99-2.96 2.33c-8.06 6.34-15.89 11.06-23.39 14.09-7.53 3.05-15.01 4.5-22.36 4.36zm200.73-149.5c2.73-1.07 5.19-2.04 7.23-2.91 2.08-0.89 3.82-1.71 5.21-2.41 8.18-4.13 14.65-9.82 19.36-17.09 4.66-7.25 7.56-16.03 8.73-26.42 1.86-17.33 1.33-35.08-1.61-53.35-2.92-18.23-7.69-33.94-14.3-47.05-4.19-8.31-9.15-14.08-14.92-17.38-5.76-3.27-12.6-4.09-20.44-2.5-0.3 16.95 1.73 44.17 6.08 81.64 4.34 37.53 5.91 66.66 4.66 87.47zm-4.58 20.37c-2.67 6.1-6.41 11.62-11.26 16.65-4.84 5.01-10.46 9.11-16.85 12.33-7.47 3.77-13.82 5.4-19.06 4.93-5.26-0.51-9.04-3.09-11.41-7.78-2.69-5.34-2.33-10.69 1.04-16.02s9.43-10.24 18.21-14.66c2.64-1.34 5.41-2.52 8.4-3.6 2.95-1.06 6.35-2.15 10.26-3.17-0.18-7.55-2.5-29.93-7.02-67.21-4.47-37.26-6.05-70.49-4.67-99.59l-0.5 0.26c-7.39 3.72-14.26 10.04-20.65 18.89-6.36 8.9-11.72 19.72-15.96 32.5-6.68 19.23-10 38.34-10.03 57.41-0.04 19.04 3.15 34.87 9.48 47.43 0.74 1.47 2.1 3.84 4.04 7.07 0.3 0.59 0.55 0.99 0.81 1.28-0.71 1.32-1.55 2.37-2.53 3.23-0.99 0.87-2.27 1.67-3.83 2.46-4.91 2.47-9.41 2.74-13.47 0.84-4.07-1.9-7.7-5.97-10.86-12.23-7.65-15.16-11.51-33.06-11.65-53.7-0.13-20.63 3.58-40.74 11.07-60.26 6.59-16.71 14.79-30.53 24.55-41.47 9.74-10.97 21.97-20.14 36.76-27.6l4.54-2.28-0.14-8.84c-0.01-2.31 0.87-4.43 2.71-6.42 1.87-1.94 5.18-4.14 10.01-6.58 3.07-1.55 5.57-2.33 7.53-2.42 1.98-0.05 3.3 0.6 4 1.98 0.36 0.72 0.65 2.11 0.76 4.1 0.12 1.94 0.14 5.72 0.05 11.3 14.3-2.68 27.43-0.45 39.32 6.72 11.91 7.22 21.9 18.77 29.96 34.77 6.3 12.48 10.84 27.21 13.64 44.17 2.78 16.99 3.3 33.59 1.48 49.84-1.66 15.1-6.13 28.37-13.49 39.77-7.39 11.37-17.14 20.14-29.32 26.28-5.08 2.56-10.61 4.66-16.6 6.26-5.96 1.63-12.4 2.77-19.32 3.36zm188.43-165.31c-4.59 0.84-8.49 0.36-11.62-1.34-3.14-1.75-5.42-4.75-6.9-9.01-2.13-6.13-2.17-11.84-0.1-17.09 2.11-5.26 5.81-8.79 11.1-10.62 5.82-2.02 11.17-1.24 15.99 2.32 4.88 3.59 8.74 9.56 11.66 18.01 3.64 10.49 5.67 21.78 6.11 33.83 0.44 12.04-0.79 23.67-3.71 34.94-3.09 11.92-7.45 21.59-13.17 28.95-5.7 7.41-12.81 12.56-21.35 15.52-6.17 2.14-11.79 3.19-16.91 3.18-5.16-0.06-9.87-1.16-14.25-3.33-4.7 4.82-9.89 9.11-15.5 12.74-5.56 3.62-11.97 6.84-19.16 9.64l-0.91-19.4c4.67-1.92 8.72-4.02 12.17-6.26 3.44-2.29 6.4-4.82 8.82-7.59-2.02-2.54-3.85-5.24-5.46-8.27-1.62-2.96-3.05-6.25-4.29-9.81-3.34-9.64-4.84-20.28-4.46-31.96 0.37-11.72 2.62-22.76 6.7-33.09 3.52-9.23 8.67-17.48 15.5-24.78 6.82-7.34 13.77-12.25 21.02-14.76 1.91-0.66 3.52-0.77 4.92-0.31 1.34 0.43 2.26 1.35 2.75 2.78 0.66 1.91-0.38 5.66-3.17 11.21-2.79 5.59-4.79 10.17-6.09 13.75-5.06 14.26-8.01 28.02-8.79 41.14-0.76 13.16 0.58 24.79 4.06 34.83 1.67 4.8 4.03 8.16 7.09 10.09 3.07 1.97 6.46 2.28 10.2 0.99 8.94-3.1 15.42-12.51 19.52-28.28 4.1-15.75 3.47-31.76-1.77-48.02zm147.41-0.24c-6.53 18.98-13.81 33.26-21.85 42.95-8.03 9.69-17.49 15.53-28.31 17.51-5.13 0.94-9.76 1.02-13.86 0.28-4.1-0.73-7.5-2.31-10.19-4.73-4.09 3.28-8.88 6.06-14.42 8.47-5.55 2.34-12.22 4.37-19.93 6.08l2.11-19.33c4.9-1.18 9.23-2.59 12.98-4.33 3.76-1.69 7.07-3.73 9.89-6.11-0.68-1.83-1.32-3.77-1.87-5.77-0.55-1.97-1.06-4.16-1.49-6.52-1.37-7.5-1.24-15.99 0.36-25.51 1.67-9.49 4.61-19.06 8.92-28.74 6.78-14.67 14.92-26.39 24.55-35.23 9.58-8.77 20.24-14.26 32-16.41 5.87-1.07 11.17-1.13 15.95-0.14 4.76 1 9.6 3.13 14.44 6.36 0.1-6.33 0.92-10.45 2.51-12.51 1.59-2.01 6.01-3.68 13.23-5 6.16-1.13 10.51-1.34 13.13-0.63 2.61 0.67 4.17 2.4 4.66 5.08 0.24 1.29 0.3 2.71 0.17 4.32-0.14 1.65-0.55 4.35-1.22 8.26l-22.2 103.64c2.65-1.48 7.14-3.11 13.53-4.76 6.39-1.69 10.98-3.01 13.8-4l-1.56 19.22-1.7 0.6c-12.96 3.66-22.01 6.98-27.08 9.86-5.45 25.44-11.14 43.45-17.06 54-5.92 10.54-13.36 16.64-22.3 18.27-5.78 1.06-10.48 0.43-14.16-1.91-3.62-2.3-5.95-6.13-6.92-11.45-1.42-7.78 0.23-15.49 4.96-23.1 4.72-7.65 12.86-15.78 24.48-24.4 2.76-9.98 5.34-20.25 7.75-30.88 2.41-10.62 4.63-21.73 6.7-33.44zm4.45-53.94c-2.8-1.45-5.46-2.4-8.04-2.88-2.52-0.45-5.05-0.46-7.5-0.02-5.33 0.98-11.01 4.4-17.11 10.29-6.05 5.85-11.57 13.36-16.41 22.47-4.49 8.37-7.66 16.98-9.54 25.79-1.88 8.8-2.28 16.29-1.15 22.44 0.8 4.4 2.18 7.54 4.1 9.39 1.91 1.85 4.47 2.49 7.62 1.91 8.88-1.62 17.39-10.02 25.58-25.14 8.13-15.11 15.64-36.57 22.45-64.25z"/>
  <path class="fil4" d="m2284 1911.4c-9.18-85.82-48.11-166.32-87.05-246.83 76.63 61.54 143.43 132.48 179.28 233 52.55 147.35 38.58 358.28 24.62 569.21 41.11-110.19 82.23-220.39 116.61-324.59 40.6-123.06 71.82-237.78 82.56-334.28 19.85-178.23-30.13-294.36-137.07-402.76-106.93-108.41-270.83-209.1-452.22-216.91s-380.29 77.26-487.09 158.75c-106.79 81.49-121.48 159.39-234.44 226.13-112.96 66.73-324.19 122.28-535.41 177.84 53.94 42.93 107.89 85.85 148.09 105.85 40.2 19.99 66.65 17.05 182.77 3.82 116.13-13.23 321.91-36.74 453.47-33.8s188.88 32.33 230.77 108.03c41.9 75.7 68.36 197.71 94.82 319.71 7.49-32.98 14.99-65.95 20.63-99.9 5.42-32.64 9.13-66.17 9.49-101.48 0.3-29.53-1.74-60.3-5.17-91.79 25.58 18.31 51.17 36.61 71.67 94.27 20.51 57.66 35.95 154.68 51.38 251.69 26.46-104.36 52.91-208.73 54.75-300.6 1.25-62.18-8.79-118.63-22.47-173.24 59.79 77.11 119.58 154.21 154.25 211.87 34.67 57.67 44.23 95.88 53.78 134.1 20.58-91.13 41.16-182.27 31.98-268.09z"/>
  <g clip-path="url(#b)">
    <path class="fil0" d="m723.96 1726.3c19.84 30.86 119.8 68.35 292.88 75.33s419.3-16.53 560.05-11.75c140.74 4.77 176.01 37.85 211.45 109.83 35.45 71.98 71.05 182.88 91.26 229.54 20.22 46.67 25.03 29.12 22.46-20.96-2.57-50.07-12.53-132.65-12.53-170.5s9.96-30.97 32.21-3.27 56.8 76.2 90.24 114.05 65.78 65.05 82.31 74.6c16.54 9.56 17.28 1.47 5.42-52.99-11.85-54.46-36.29-155.29-47.68-202.48-11.38-47.18-9.7-40.71 5.09-33.29 14.79 7.43 42.7 15.8 85.68 58.57 42.99 42.78 101.06 119.95 133.03 136.48 31.97 16.54 37.85-27.55 29.37-78.51-8.48-50.95-31.31-108.76-51.75-157.64-20.43-48.89-38.46-88.84-63.25-120.51s-56.33-55.04-41.05-67.16c15.29-12.12 77.42-12.98 132.36 22.24 54.95 35.21 102.73 106.5 156.75 227.77s114.28 292.51 153.23 247.31c38.96-45.19 56.59-306.84 17.27-526.22s-135.59-396.51-341.38-469.27-521.09-41.16-779.79 66.14c-258.71 107.3-460.83 290.31-592.02 393.94-131.19 103.62-191.45 127.88-171.61 158.75z"/>
  </g>
  <path class="fil1" d="m2284 1911.4c-9.18-85.82-48.11-166.32-87.05-246.83 76.63 61.54 143.43 132.48 179.28 233 52.55 147.35 38.58 358.28 24.62 569.21 41.11-110.19 82.23-220.39 116.61-324.59 40.6-123.06 71.82-237.78 82.56-334.28 19.85-178.23-30.13-294.36-137.07-402.76-106.93-108.41-270.83-209.1-452.22-216.91s-380.29 77.26-487.09 158.75c-106.79 81.49-121.48 159.39-234.44 226.13-112.96 66.73-324.19 122.28-535.41 177.84 53.94 42.93 107.89 85.85 148.09 105.85 40.2 19.99 66.65 17.05 182.77 3.82 116.13-13.23 321.91-36.74 453.47-33.8s188.88 32.33 230.77 108.03c41.9 75.7 68.36 197.71 94.82 319.71 7.49-32.98 14.99-65.95 20.63-99.9 5.42-32.64 9.13-66.17 9.49-101.48 0.3-29.53-1.74-60.3-5.17-91.79 25.58 18.31 51.17 36.61 71.67 94.27 20.51 57.66 35.95 154.68 51.38 251.69 26.46-104.36 52.91-208.73 54.75-300.6 1.25-62.18-8.79-118.63-22.47-173.24 59.79 77.11 119.58 154.21 154.25 211.87 34.67 57.67 44.23 95.88 53.78 134.1 20.58-91.13 41.16-182.27 31.98-268.09z"/>
  <path class="fil5" d="m2284 1911.4c9.18 85.82-11.4 176.96-31.98 268.09-9.55-38.22-19.11-76.43-53.78-134.1-34.67-57.66-94.46-134.76-154.25-211.87 13.68 54.61 23.72 111.06 22.47 173.24-1.84 91.87-28.29 196.24-54.75 300.6-15.43-97.01-30.87-194.03-51.38-251.69-20.5-57.66-46.09-75.96-71.67-94.27 3.43 31.49 5.47 62.26 5.17 91.79-0.36 35.31-4.07 68.84-9.49 101.48 16.24 56.71 32.48 113.42 13.65 190.32-18.84 76.91-72.76 174.01-126.68 271.11 63.8-37.8 127.6-75.6 178.74-122.88s89.61-104.04 128.09-160.8l-7.25 116.69-13.31 222.59c30.64-65.23 61.27-130.46 85.96-194.11 24.68-63.65 43.41-125.72 62.14-187.79 11.04 88.18 22.08 176.35 98.87 238.09 76.81 61.73 219.37 97.02 361.94 132.31l-149.03-518.01c-34.38 104.2-75.5 214.4-116.61 324.59 13.96-210.93 27.93-421.86-24.62-569.21-35.85-100.52-102.65-171.46-179.28-233 38.94 80.51 77.87 161.01 87.05 246.83z"/>
  <g clip-path="url(#a)">
    <path class="fil6" d="m1741.9 2543.3c66.15-61.36 145.52-130.45 192.92-219.38 47.41-88.92 62.85-197.7 86-237.02s54.02-9.18 80.11 23.89 47.41 69.08 70.56 22.77c23.15-46.3 48.13-174.91 73.12-224.52s49.98-20.21 74.97 35.64c24.99 55.86 49.98 138.18 70.19 225.27s35.65 178.96 76.07 159.11c40.42-19.84 105.83-151.39 138.9-214.97 33.08-63.57 33.81-59.16 62.47 59.16 28.67 118.33 85.26 350.58 80.48 474.78-4.78 124.21-70.92 140.38-227.84 147.73-156.91 7.35-404.59 5.88-578.04-9.56-173.45-15.43-272.67-44.82-295.82-86.35-23.15-41.52 29.76-95.18 95.91-156.55z"/>
  </g>
  <path class="fil1" d="m2284 1911.4c9.18 85.82-11.4 176.96-31.98 268.09-9.55-38.22-19.11-76.43-53.78-134.1-34.67-57.66-94.46-134.76-154.25-211.87 13.68 54.61 23.72 111.06 22.47 173.24-1.84 91.87-28.29 196.24-54.75 300.6-15.43-97.01-30.87-194.03-51.38-251.69-20.5-57.66-46.09-75.96-71.67-94.27 3.43 31.49 5.47 62.26 5.17 91.79-0.36 35.31-4.07 68.84-9.49 101.48 16.24 56.71 32.48 113.42 13.65 190.32-18.84 76.91-72.76 174.01-126.68 271.11 63.8-37.8 127.6-75.6 178.74-122.88s89.61-104.04 128.09-160.8l-7.25 116.69-13.31 222.59c30.64-65.23 61.27-130.46 85.96-194.11 24.68-63.65 43.41-125.72 62.14-187.79 11.04 88.18 22.08 176.35 98.87 238.09 76.81 61.73 219.37 97.02 361.94 132.31l-149.03-518.01c-34.38 104.2-75.5 214.4-116.61 324.59 13.96-210.93 27.93-421.86-24.62-569.21-35.85-100.52-102.65-171.46-179.28-233 38.94 80.51 77.87 161.01 87.05 246.83z"/>
  <path class="fil1 str0" d="m2085.6 1582.6c119.06 83.78 238.13 167.57 290.68 314.93 52.55 147.35 38.58 358.28 24.62 569.21 89.67-240.33 179.33-480.65 199.17-658.87 19.85-178.23-30.13-294.36-137.07-402.76-106.93-108.41-270.83-209.1-452.22-216.91s-380.29 77.26-487.09 158.75c-106.79 81.49-121.48 159.39-234.44 226.13-112.96 66.73-324.19 122.28-535.41 177.84 53.94 42.93 107.89 85.85 148.09 105.85 40.2 19.99 66.65 17.05 182.77 3.82 116.13-13.23 321.91-36.74 453.47-33.8s188.88 32.33 230.77 108.03c41.9 75.7 68.36 197.71 94.82 319.71 14.7-64.68 29.39-129.35 30.12-201.38 0.74-72.03-12.48-151.4-25.71-230.78"/>
  <path class="fil1 str0" d="m1884.4 2154.6c16.24 56.71 32.48 113.42 13.65 190.32-18.84 76.91-72.76 174.01-126.68 271.11 63.8-37.8 127.6-75.6 178.74-122.88s89.61-104.04 128.09-160.8c-1.91 30.08-3.82 60.14-7.25 116.69-3.42 56.55-8.37 139.57-13.31 222.59 30.64-65.23 61.27-130.46 85.96-194.11 24.68-63.65 43.41-125.72 62.14-187.79 11.04 88.18 22.08 176.35 98.87 238.09 76.81 61.73 219.37 97.02 361.94 132.31-49.67-172.67-99.35-345.34-149.03-518.01"/>
  <path class="fil1 str0" d="m1888.7 1961.4c25.58 18.31 51.17 36.61 71.67 94.27 20.51 57.66 35.95 154.68 51.38 251.69 26.46-104.36 52.91-208.73 54.75-300.6s-20.95-171.24-43.73-250.62"/>
  <path class="fil1 str0" d="m2197 1664.6c38.94 80.51 77.87 161.01 87.05 246.83s-11.4 176.96-31.98 268.09c-9.55-38.22-19.11-76.43-53.78-134.1-34.67-57.66-94.46-134.76-154.25-211.87"/>
  <path class="fil1 str0" d="m1384.4 1492c7.72-78.06 15.44-156.11 118.52-264.96s301.52-248.49 499.96-388.13c5.15 25.72 10.29 51.45-1.18 109.99-11.47 58.53-39.57 149.89-67.66 241.24"/>
  <path class="fil1 str0" d="m1713 1589.9c7.72-78.06 15.44-156.11 118.32-270.63 102.89-114.52 300.93-265.5 498.98-416.48 5.54 37.06 11.08 74.13-0.03 133.09-11.1 58.96-38.86 139.81-66.61 220.67"/>
  <path class="fil1 str0" d="m2022.7 1623.4c5.74-58.03 11.48-116.06 87.97-201.2s223.72-197.38 370.96-309.63c4.12 27.55 8.24 55.11-0.02 98.95-8.25 43.83-28.89 103.94-49.52 164.05"/>
  <path class="fil1 str0" d="m2248.6 1654.6c3.94-39.81 7.87-79.62 60.34-138.02s153.47-135.4 254.48-212.4c2.82 18.9 5.65 37.81-0.02 67.87-5.66 30.07-19.82 71.31-33.97 112.54"/>
  <path class="fil7 str0" d="m837.4 1815.7c30.64-17.27 61.27-34.54 69.25-51.15s-6.69-32.57-21.37-48.52c-43.83 11.64-87.65 23.28-131.48 34.92 27.87 21.58 55.73 43.17 83.6 64.75z"/>
  <path class="fil7 str0" d="m1437.9 1564.6c23.46-46.92 46.93-93.86 90.42-128.76 43.5-34.91 107.02-57.81 170.55-80.7-35.48 52.08-70.96 104.16-114.46 139.07s-95 52.65-146.51 70.39z"/>
  <path class="fil0 str0" d="m1529.2 1441.1c-15.24 11.9-23.03 24.79-27.33 41.96-4.29 17.17-5.08 38.65 4.86 44.06 9.94 5.4 30.6-5.26 46.23-27.9 15.63-22.65 26.21-57.29 20.17-69.13-6.04-11.85-28.71-0.9-43.93 11.01z"/>
  <path class="fil0 str0" d="m1598.6 1412.7c-7.49 5.85-11.33 12.19-13.44 20.64-2.11 8.44-2.5 19.01 2.39 21.67 4.89 2.65 15.05-2.59 22.74-13.72 7.69-11.14 12.89-28.18 9.92-34.01s-14.12-0.44-21.61 5.42z"/>
  <path class="fil0 str0" d="m763.14 1755.5c8.74 3.24 17.49 6.47 36.38 7.54 18.88 1.07 47.91-0.04 63.63-6.86 15.71-6.82 18.1-19.36 20.5-31.9-40.17 10.41-80.34 20.81-120.51 31.22z"/>
  <path class="fil7 str0" d="m1492.9 1359c-2.68-12.27 3.79-60.24 40.39-104.76 36.59-44.52 103.31-85.57 170.02-126.63-40.38 33.69-80.77 67.39-110.23 97.17s-48 55.65-43.98 56.54c4.01 0.9 30.58-23.19 68.64-39.58 38.05-16.4 87.58-25.1 137.12-33.8-78.54 38.82-157.09 77.65-202.27 108.78-45.19 31.13-57.01 54.55-59.69 42.28z"/>
  <path class="fil0 str0" d="m1002.2 2194.8c171.55 0 310.62 139.07 310.62 310.62s-139.07 310.62-310.62 310.62-310.62-139.07-310.62-310.62 139.07-310.62 310.62-310.62z"/>
  <path class="fil1 str0" d="m3065.6 1050.3c83.7 144.96-467.34 619.8-1230.8 1060.6-763.42 440.78-1450.2 680.6-1533.8 535.64"/>
  <path class="fil0 str0" d="m376.21 1386.8c-2.78 0.62 7.17 39.67-9 67.68s-58.47 44.96-57.64 48c0.83 3.03 44.77-7.88 72.79 8.3 28.01 16.17 40.07 59.4 43.02 58.59 2.94-0.84-3.26-45.73 12.91-73.73 16.17-28.01 54.7-39.13 53.72-41.94-0.99-2.84-41.49 2.64-69.49-13.53-28.01-16.17-43.52-53.99-46.31-53.37z"/>
  <path class="fil0 str0" d="m434.91 742.5c-2.78 0.62 7.17 39.67-9 67.68s-58.47 44.96-57.64 48c0.83 3.03 44.77-7.88 72.79 8.3 28.01 16.17 40.07 59.4 43.02 58.59 2.94-0.84-3.26-45.73 12.91-73.73 16.17-28.01 54.7-39.13 53.72-41.94-0.99-2.84-41.49 2.64-69.49-13.53-28.01-16.17-43.52-53.99-46.31-53.37z"/>
  <path class="fil0 str0" d="m1744.6 407.33c-2.78 0.62 7.17 39.67-9 67.68s-58.47 44.96-57.64 48c0.83 3.03 44.77-7.88 72.79 8.3 28.01 16.17 40.07 59.4 43.02 58.59 2.94-0.84-3.26-45.73 12.91-73.73 16.17-28.01 54.7-39.13 53.72-41.94-0.99-2.84-41.49 2.64-69.49-13.53-28.01-16.17-43.52-53.99-46.31-53.37z"/>
  <path class="fil0 str0" d="m278 1090.6c-1.57 0.35 4.07 22.51-5.1 38.4-9.18 15.89-33.18 25.52-32.71 27.24s25.41-4.47 41.3 4.71c15.89 9.17 22.74 33.71 24.41 33.24s-1.84-25.94 7.33-41.83c9.18-15.9 31.04-22.2 30.48-23.8-0.56-1.61-23.54 1.5-39.43-7.68-15.89-9.17-24.7-30.63-26.28-30.28z"/>
  <path class="fil0 str0" d="m428.49 1838.8c-1.57 0.35 4.07 22.51-5.1 38.4-9.18 15.89-33.18 25.52-32.71 27.24s25.41-4.47 41.3 4.71c15.89 9.17 22.74 33.71 24.41 33.24s-1.84-25.94 7.33-41.83c9.18-15.9 31.04-22.2 30.48-23.8-0.56-1.61-23.54 1.5-39.43-7.68-15.89-9.17-24.7-30.63-26.28-30.28z"/>
  <path class="fil0 str0" d="m861.78 576.35c-1.57 0.35 4.07 22.51-5.1 38.4-9.18 15.89-33.18 25.52-32.71 27.24s25.41-4.47 41.3 4.71c15.89 9.17 22.74 33.71 24.41 33.24s-1.84-25.94 7.33-41.83c9.18-15.9 31.04-22.2 30.48-23.8-0.56-1.61-23.54 1.5-39.43-7.68-15.89-9.17-24.7-30.63-26.28-30.28z"/>
</svg>